<?xml version="1.0" encoding="utf-8"?>
<!-- Generator: Adobe Illustrator 24.0.2, SVG Export Plug-In . SVG Version: 6.00 Build 0)  -->
<svg version="1.1" id="Calque_1" xmlns="http://www.w3.org/2000/svg" xmlns:xlink="http://www.w3.org/1999/xlink" x="0px" y="0px"
	 viewBox="0 0 429.3 624.4" style="enable-background:new 0 0 429.3 624.4;" xml:space="preserve">
<style type="text/css">
	.st0{fill:#07589F;}
	.st1{fill:#FFFFFF;stroke:#250D09;stroke-miterlimit:10;}
	.st2{fill:#FFFFFF;}
</style>
<g>
	<path class="st0" d="M37.1,167.7c4.3,1.2,21.9,6.6,30.9,23.6c5.5,10.4,5.3,20.4,5.1,25.5c-0.5,13.7-5.8,23.6-11.7,34.4
		c-8.6,15.7-11.7,14.2-20.8,29.6c-7.7,13-15.1,25.4-16.6,42.9c-1.5,17.8,3.7,33,4.3,34.6c0.6,1.8,5.5,13.6,9.5,24.3
		c0,0,1.3,3.5,3,9.6c1.5,5.7,1.8,8.1,1.8,10.4c0,2.8-0.6,5.1-1,6.6c-6-2.8-9.8-6.2-12-8.6c-3.6-3.9-5.6-7.7-7.7-11.8
		c-1.9-3.6-3.1-6.8-4.4-10.3c-2.2-5.9-5-14.3-7-25c-6.6,18.6-16.8,56.1-5.3,98.9c2.7,9.8,7.5,27.2,21.1,45.2
		c17.8,23.8,39.9,34.3,63.7,45.6c21.5,10.2,39.2,15.2,68.1,23.2c41.5,11.6,61.8,16.3,61.8,16.3c8.3,2.6,15.3,5.5,21,8.2
		c8.4,4,17,7.9,26.3,15.3c4.8,3.8,11.2,9.7,17.5,18.2c2.4-11.6,7.1-25.7,16.1-39.8c0,0,11.5-17.8,32-34.1c8.6-6.8,9.7-6.3,37.9-24.3
		c18.8-11.9,28.2-17.9,31.9-21.3c9.1-8.5,21.3-24.4,26-55.1c1.5-15.3,0.4-28.4-1.6-39.1c-3.4-18.3-10.2-33-19.4-53.1
		c-7.4-16.2-12-22.3-15.7-36.8c-3.3-12.9-3.6-23-3.6-26.1c-0.2-10.3,1.3-13.6,2.1-24.6c0.4-4.9,1.2-19.8-1.4-35.3
		c-1.6-9.5-5.4-24-15.1-40.4c0.5,4.6,1.6,16.1-1.2,26.1c-0.7,2.6-1.9,5.9-4.8,8.9c-1.5,1.5-4.4,4.5-7,3.9
		c-4.8-1.2-5.4-13.6-5.6-17.4c-0.4-8.6,1-15.2,1.4-17c3.4-16.7-1.5-32.1-8.2-53.1c-3.7-11.6-7.6-19.7-11.5-27.9
		c-6.7-13.9-17.2-32.9-33.2-54.2c2.6,22.9-1.1,40.4-4.1,50.6c-5,17.1-11.5,25-13.8,27.7c-5.3,6.1-13.8,15.8-25.5,15.7
		c-14.4-0.1-24.2-15-28.1-20.9c-5.3-8.1-7.1-15.5-10.4-28.8c-1.8-7.2-3.5-14.6-3.9-24.8c-0.5-14.6,2.2-25.6,2.9-28
		c2.7-9.7,6-14.8,14-32c4.5-9.8,8-17.9,10.2-23.2c-5.5,4.2-13.8,10.2-24.5,16.4c-9.8,5.7-13.5,6.8-23,11.7
		c-8.6,4.4-26,13.9-44.1,28.5c-14.8,12-23.5,22.2-25.7,24.8c-8.2,9.8-14.5,17.4-18.8,29.4c-1.7,4.7-5.2,14.7-4.4,27
		c0.6,10,4.2,23.2,5.3,27.4l0,0c2.3,10.7,5.3,15.4,3.1,17.7c-2.4,2.5-8.5,0.2-14.4-2.1c-10.9-4.2-12.9-7.7-23.7-13.2
		c-9.1-4.6-15.8-7.9-23.9-6.7C44.6,162.1,39.9,165.3,37.1,167.7z"/>
	<path class="st1" d="M196.1,188.1"/>
	<path class="st1" d="M158.3,138.2"/>
	<g>
		<polygon class="st2" points="211.4,337.6 211.4,361.3 161.4,361.3 161.4,510.2 137.1,510.2 137.1,361.3 86.6,361.3 86.6,337.6 
			137.1,337.6 137.1,289.8 161.4,289.8 161.4,337.6 		"/>
	</g>
	<path class="st2" d="M225.4,215.1c-0.7,0.7,0.9,2.3,3.1,7.7c1.8,4.6,2.6,8.5,3.1,10.8c0.4,1.9,0.5,3,0.8,5.1
		c1.6,11,1.2,13.3,3.4,16.8c0.8,1.2,2,3.3,4.5,4.5c1.3,0.6,2.8,0.7,5.7,1c4.1,0.4,6.2,0.5,7.1,0c2.7-1.7,2.6-6.2,2.6-9.1
		c0-2.4-0.4-4.5-1.1-8c-0.3-1.6-0.5-2.6-0.9-3.9c-0.1-0.2-1.2-3.8-3.4-7.3c-3.9-6.2-9.7-10-14-12.8
		C233.6,218.2,226.6,213.7,225.4,215.1z"/>
	<path class="st2" d="M270.6,273.5c-1.2,3.6,2,8.2,4.8,10.5c2.9,2.3,6.1,2.6,7.1,2.6c6.1,0.5,9.6-3.4,10.5-2.4
		c1.5,1.5-5.2,12.2-15.3,19.9c-5.4,4.2-9.2,5.4-11,5.9c-6.5,1.8-11.6,0.6-14,0c-2.3-0.6-5.9-1.5-6.1-3.3c-0.2-1.5,2-2.3,4.8-5.6
		c2-2.4,4.9-5.7,4.1-8.2c-1.1-3.3-8.2-1.6-10.2-5.6c-1.7-3.4,1.6-7.6,0.2-8.7c-1.7-1.3-7.1,3.8-8,2.9c-0.7-0.7,3.3-3.5,3.9-8.5
		c0.1-1.1,0.2-3.5,1.6-6.3c0.2-0.4,0.3-0.7,0.5-0.9c0,0,1.3-2,3.6-3.1c4.7-2.2,8.2,2.7,13.3,1.5c4-0.9,6.1-5,8.2-8.7
		c3.7-6.8,1.6-9.3,4.2-13.3c3.7-5.8,12-6.4,24.4-7.4c11.6-0.9,21.9,0.6,22,1.9c0,0.9-4.7,0.4-9.4,4.1c-3.2,2.5-4.9,5.7-6.7,9
		c-2.4,4.5-3.3,8.1-7.3,11.4c-0.4,0.3-0.8,0.6-1.1,0.8c-4.4,2.7-8.2,3.6-10.3,4.1C279.7,267.3,272.1,269.1,270.6,273.5z"/>
	<path class="st0" d="M228,216.1"/>
</g>
</svg>
